<svg width="350" height="14" viewBox="0 0 350 14" fill="none" xmlns="http://www.w3.org/2000/svg">
<path d="M0 0.699943H4.95C6.678 0.699943 8.112 1.30594 9.252 2.51794C10.404 3.72994 10.98 5.22394 10.98 6.99994C10.98 8.76394 10.404 10.2579 9.252 11.4819C8.112 12.6939 6.678 13.2999 4.95 13.2999H0V0.699943ZM2.07 11.3199H4.95C6.138 11.3199 7.104 10.9119 7.848 10.0959C8.604 9.27994 8.982 8.24794 8.982 6.99994C8.982 5.75194 8.604 4.71994 7.848 3.90394C7.104 3.08794 6.138 2.67994 4.95 2.67994H2.07V11.3199Z" fill="#4ACDFE"/>
<path d="M16.7372 7.91794V11.3199H22.3172V13.2999H14.6672V0.699943H22.2272V2.67994H16.7372V5.95594H21.7772V7.91794H16.7372Z" fill="#4ACDFE"/>
<path d="M31.8646 13.5339C29.9686 13.5339 28.3966 12.9099 27.1486 11.6619C25.9006 10.3899 25.2766 8.83594 25.2766 6.99994C25.2766 5.15194 25.9006 3.60394 27.1486 2.35594C28.3846 1.09594 29.9566 0.465942 31.8646 0.465942C33.0046 0.465942 34.0546 0.735942 35.0146 1.27594C35.9866 1.81594 36.7426 2.54794 37.2826 3.47194L35.4826 4.51594C35.1466 3.89194 34.6546 3.39994 34.0066 3.03994C33.3706 2.66794 32.6566 2.48194 31.8646 2.48194C30.5326 2.48194 29.4406 2.90794 28.5886 3.75994C27.7606 4.59994 27.3466 5.67994 27.3466 6.99994C27.3466 8.31994 27.7606 9.39994 28.5886 10.2399C29.4406 11.0919 30.5326 11.5179 31.8646 11.5179C32.6566 11.5179 33.3766 11.3379 34.0246 10.9779C34.6726 10.6059 35.1586 10.1079 35.4826 9.48394L37.2826 10.5099C36.7666 11.4219 36.0166 12.1599 35.0326 12.7239C34.0846 13.2639 33.0286 13.5339 31.8646 13.5339Z" fill="#4ACDFE"/>
<path d="M42.8723 7.91794V11.3199H48.4523V13.2999H40.8023V0.699943H48.3623V2.67994H42.8723V5.95594H47.9123V7.91794H42.8723Z" fill="#4ACDFE"/>
<path d="M59.7073 9.24994V0.699943H61.7773V13.2999H60.1573L54.2173 4.74994V13.2999H52.1473V0.699943H53.7673L59.7073 9.24994Z" fill="#4ACDFE"/>
<path d="M65.1038 0.699943H74.2838V2.67994H70.7377V13.2999H68.6677V2.67994H65.1038V0.699943Z" fill="#4ACDFE"/>
<path d="M87.0645 13.2999H84.7965L82.1325 8.70994H79.6845V13.2999H77.6145V0.699943H82.6545C83.7825 0.699943 84.7365 1.09594 85.5165 1.88794C86.3085 2.65594 86.7045 3.60994 86.7045 4.74994C86.7045 5.55394 86.4705 6.29194 86.0025 6.96394C85.5465 7.62394 84.9465 8.10394 84.2025 8.40394L87.0645 13.2999ZM82.6545 2.64394H79.6845V6.85594H82.6545C83.2065 6.85594 83.6745 6.65194 84.0585 6.24394C84.4425 5.83594 84.6345 5.33794 84.6345 4.74994C84.6345 4.16194 84.4425 3.66394 84.0585 3.25594C83.6745 2.84794 83.2065 2.64394 82.6545 2.64394Z" fill="#4ACDFE"/>
<path d="M100.894 13.2999H98.6615L97.7795 10.7619H92.4155L91.5335 13.2999H89.2835L93.8555 0.699943H96.3395L100.894 13.2999ZM95.0975 3.12994L93.0995 8.81794H97.0955L95.0975 3.12994Z" fill="#4ACDFE"/>
<path d="M106.118 0.699943V11.3199H111.248V13.2999H104.048V0.699943H106.118Z" fill="#4ACDFE"/>
<path d="M114.585 13.2999V0.699943H116.655V13.2999H114.585Z" fill="#4ACDFE"/>
<path d="M128.623 2.40994L122.971 11.3199H128.767V13.2999H120.397V11.5899L126.049 2.67994H120.523V0.699943H128.623V2.40994Z" fill="#4ACDFE"/>
<path d="M134.388 7.91794V11.3199H139.968V13.2999H132.318V0.699943H139.878V2.67994H134.388V5.95594H139.428V7.91794H134.388Z" fill="#4ACDFE"/>
<path d="M143.663 0.699943H148.613C150.34 0.699943 151.775 1.30594 152.915 2.51794C154.066 3.72994 154.643 5.22394 154.643 6.99994C154.643 8.76394 154.066 10.2579 152.915 11.4819C151.775 12.6939 150.34 13.2999 148.613 13.2999H143.663V0.699943ZM145.733 11.3199H148.613C149.801 11.3199 150.767 10.9119 151.511 10.0959C152.267 9.27994 152.645 8.24794 152.645 6.99994C152.645 5.75194 152.267 4.71994 151.511 3.90394C150.767 3.08794 149.801 2.67994 148.613 2.67994H145.733V11.3199Z" fill="#4ACDFE"/>
<path d="M170.588 13.5339C168.692 13.5339 167.12 12.9099 165.872 11.6619C164.624 10.3899 164 8.83594 164 6.99994C164 5.15194 164.624 3.60394 165.872 2.35594C167.108 1.09594 168.68 0.465942 170.588 0.465942C171.728 0.465942 172.778 0.735942 173.738 1.27594C174.71 1.81594 175.466 2.54794 176.006 3.47194L174.206 4.51594C173.87 3.89194 173.378 3.39994 172.73 3.03994C172.094 2.66794 171.38 2.48194 170.588 2.48194C169.256 2.48194 168.164 2.90794 167.312 3.75994C166.484 4.59994 166.07 5.67994 166.07 6.99994C166.07 8.31994 166.484 9.39994 167.312 10.2399C168.164 11.0919 169.256 11.5179 170.588 11.5179C171.38 11.5179 172.1 11.3379 172.748 10.9779C173.396 10.6059 173.882 10.1079 174.206 9.48394L176.006 10.5099C175.49 11.4219 174.74 12.1599 173.756 12.7239C172.808 13.2639 171.752 13.5339 170.588 13.5339Z" fill="#4ACDFE"/>
<path d="M188.975 13.2999H186.707L184.043 8.70994H181.595V13.2999H179.525V0.699943H184.565C185.693 0.699943 186.647 1.09594 187.427 1.88794C188.219 2.65594 188.615 3.60994 188.615 4.74994C188.615 5.55394 188.381 6.29194 187.913 6.96394C187.457 7.62394 186.857 8.10394 186.113 8.40394L188.975 13.2999ZM184.565 2.64394H181.595V6.85594H184.565C185.117 6.85594 185.585 6.65194 185.969 6.24394C186.353 5.83594 186.545 5.33794 186.545 4.74994C186.545 4.16194 186.353 3.66394 185.969 3.25594C185.585 2.84794 185.117 2.64394 184.565 2.64394Z" fill="#4ACDFE"/>
<path d="M199.339 0.699943H201.697L197.305 8.29594V13.2999H195.235V8.29594L190.843 0.699943H193.201L196.279 6.27994L199.339 0.699943Z" fill="#4ACDFE"/>
<path d="M204.852 0.699943H209.496C210.684 0.699943 211.674 1.09594 212.466 1.88794C213.27 2.67994 213.672 3.66394 213.672 4.83994C213.672 6.00394 213.27 6.98794 212.466 7.79194C211.674 8.58394 210.684 8.97994 209.496 8.97994H206.922V13.2999H204.852V0.699943ZM206.922 7.03594H209.496C210.108 7.03594 210.612 6.83194 211.008 6.42394C211.404 6.00394 211.602 5.47594 211.602 4.83994C211.602 4.20394 211.404 3.68194 211.008 3.27394C210.612 2.85394 210.108 2.64394 209.496 2.64394H206.922V7.03594Z" fill="#4ACDFE"/>
<path d="M216.015 0.699943H225.195V2.67994H221.649V13.2999H219.579V2.67994H216.015V0.699943Z" fill="#4ACDFE"/>
<path d="M238.335 11.6439C237.075 12.9039 235.533 13.5339 233.709 13.5339C231.885 13.5339 230.337 12.9039 229.065 11.6439C227.805 10.3719 227.175 8.82394 227.175 6.99994C227.175 5.17594 227.805 3.63394 229.065 2.37394C230.337 1.10194 231.885 0.465942 233.709 0.465942C235.533 0.465942 237.075 1.10194 238.335 2.37394C239.607 3.63394 240.243 5.17594 240.243 6.99994C240.243 8.82394 239.607 10.3719 238.335 11.6439ZM230.523 10.2399C231.399 11.0919 232.461 11.5179 233.709 11.5179C234.969 11.5179 236.025 11.0919 236.877 10.2399C237.741 9.37594 238.173 8.29594 238.173 6.99994C238.173 5.70394 237.741 4.62994 236.877 3.77794C236.025 2.91394 234.969 2.48194 233.709 2.48194C232.449 2.48194 231.387 2.91394 230.523 3.77794C229.671 4.62994 229.245 5.70394 229.245 6.99994C229.245 8.28394 229.671 9.36394 230.523 10.2399Z" fill="#4ACDFE"/>
<path d="M250.232 0.699943H254.876C256.064 0.699943 257.054 1.09594 257.846 1.88794C258.65 2.67994 259.052 3.66394 259.052 4.83994C259.052 6.00394 258.65 6.98794 257.846 7.79194C257.054 8.58394 256.064 8.97994 254.876 8.97994H252.302V13.2999H250.232V0.699943ZM252.302 7.03594H254.876C255.488 7.03594 255.992 6.83194 256.388 6.42394C256.784 6.00394 256.982 5.47594 256.982 4.83994C256.982 4.20394 256.784 3.68194 256.388 3.27394C255.992 2.85394 255.488 2.64394 254.876 2.64394H252.302V7.03594Z" fill="#4ACDFE"/>
<path d="M264.719 0.699943V11.3199H269.849V13.2999H262.649V0.699943H264.719Z" fill="#4ACDFE"/>
<path d="M283.977 13.2999H281.745L280.863 10.7619H275.499L274.617 13.2999H272.367L276.939 0.699943H279.423L283.977 13.2999ZM278.181 3.12994L276.183 8.81794H280.179L278.181 3.12994Z" fill="#4ACDFE"/>
<path d="M285.245 0.699943H294.425V2.67994H290.879V13.2999H288.809V2.67994H285.245V0.699943Z" fill="#4ACDFE"/>
<path d="M305.136 0.699943V2.67994H299.826V6.20794H304.956V8.18794H299.826V13.2999H297.756V0.699943H305.136Z" fill="#4ACDFE"/>
<path d="M319.402 11.6439C318.142 12.9039 316.6 13.5339 314.776 13.5339C312.952 13.5339 311.404 12.9039 310.132 11.6439C308.872 10.3719 308.242 8.82394 308.242 6.99994C308.242 5.17594 308.872 3.63394 310.132 2.37394C311.404 1.10194 312.952 0.465942 314.776 0.465942C316.6 0.465942 318.142 1.10194 319.402 2.37394C320.674 3.63394 321.31 5.17594 321.31 6.99994C321.31 8.82394 320.674 10.3719 319.402 11.6439ZM311.59 10.2399C312.466 11.0919 313.528 11.5179 314.776 11.5179C316.036 11.5179 317.092 11.0919 317.944 10.2399C318.808 9.37594 319.24 8.29594 319.24 6.99994C319.24 5.70394 318.808 4.62994 317.944 3.77794C317.092 2.91394 316.036 2.48194 314.776 2.48194C313.516 2.48194 312.454 2.91394 311.59 3.77794C310.738 4.62994 310.312 5.70394 310.312 6.99994C310.312 8.28394 310.738 9.36394 311.59 10.2399Z" fill="#4ACDFE"/>
<path d="M334.448 13.2999H332.18L329.516 8.70994H327.068V13.2999H324.998V0.699943H330.038C331.166 0.699943 332.12 1.09594 332.9 1.88794C333.692 2.65594 334.088 3.60994 334.088 4.74994C334.088 5.55394 333.854 6.29194 333.386 6.96394C332.93 7.62394 332.33 8.10394 331.586 8.40394L334.448 13.2999ZM330.038 2.64394H327.068V6.85594H330.038C330.59 6.85594 331.058 6.65194 331.442 6.24394C331.826 5.83594 332.018 5.33794 332.018 4.74994C332.018 4.16194 331.826 3.66394 331.442 3.25594C331.058 2.84794 330.59 2.64394 330.038 2.64394Z" fill="#4ACDFE"/>
<path d="M347.684 0.699943H349.897V13.2999H347.827V4.31794L343.993 10.6539H343.741L339.908 4.29994V13.2999H337.837V0.699943H340.069L343.867 6.99994L347.684 0.699943Z" fill="#4ACDFE"/>
</svg>
