<svg width="1122" height="420" viewBox="0 0 1122 420" fill="none" xmlns="http://www.w3.org/2000/svg">
<rect x="0.244054" y="0.429525" width="55" height="55" rx="5.5" transform="matrix(1 0 -0.511893 0.859049 113.348 0.0605418)" stroke="#192937"/>
<rect x="0.244054" y="0.429525" width="55" height="55" rx="5.5" transform="matrix(1 0 -0.511893 0.859049 168.348 0.0605418)" stroke="#192937"/>
<rect x="0.244054" y="0.429525" width="55" height="55" rx="5.5" transform="matrix(1 0 -0.511893 0.859049 223.348 0.0605418)" stroke="#192937"/>
<rect x="0.244054" y="0.429525" width="55" height="55" rx="5.5" transform="matrix(1 0 -0.511893 0.859049 278.348 0.0605418)" stroke="#192937"/>
<rect x="0.244054" y="0.429525" width="55" height="55" rx="5.5" transform="matrix(1 0 -0.511893 0.859049 333.348 0.0605418)" stroke="#192937"/>
<rect x="0.244054" y="0.429525" width="55" height="55" rx="5.5" transform="matrix(1 0 -0.511893 0.859049 388.348 0.0605418)" stroke="#192937"/>
<rect x="0.244054" y="0.429525" width="55" height="55" rx="5.5" transform="matrix(1 0 -0.511893 0.859049 443.348 0.0605418)" stroke="#192937"/>
<rect x="0.244054" y="0.429525" width="55" height="55" rx="5.5" transform="matrix(1 0 -0.511893 0.859049 498.348 0.0605418)" stroke="#192937"/>
<rect x="0.244054" y="0.429525" width="55" height="55" rx="5.5" transform="matrix(1 0 -0.511893 0.859049 553.348 0.0605418)" stroke="#192937"/>
<rect x="0.244054" y="0.429525" width="55" height="55" rx="5.5" transform="matrix(1 0 -0.511893 0.859049 608.348 0.0605418)" stroke="#192937"/>
<rect x="0.244054" y="0.429525" width="55" height="55" rx="5.5" transform="matrix(1 0 -0.511893 0.859049 85.1941 47.3082)" stroke="#192937"/>
<rect x="0.244054" y="0.429525" width="55" height="55" rx="5.5" transform="matrix(1 0 -0.511893 0.859049 140.194 47.3082)" stroke="#192937"/>
<rect x="0.244054" y="0.429525" width="55" height="55" rx="5.5" transform="matrix(1 0 -0.511893 0.859049 195.194 47.3082)" stroke="#192937"/>
<rect x="0.244054" y="0.429525" width="55" height="55" rx="5.5" transform="matrix(1 0 -0.511893 0.859049 250.194 47.3082)" stroke="#192937"/>
<rect x="0.244054" y="0.429525" width="55" height="55" rx="5.5" transform="matrix(1 0 -0.511893 0.859049 305.194 47.3082)" stroke="#192937"/>
<rect x="0.244054" y="0.429525" width="55" height="55" rx="5.5" transform="matrix(1 0 -0.511893 0.859049 360.194 47.3082)" stroke="#192937"/>
<rect x="0.244054" y="0.429525" width="55" height="55" rx="5.5" transform="matrix(1 0 -0.511893 0.859049 415.194 47.3082)" stroke="#192937"/>
<rect x="0.244054" y="0.429525" width="55" height="55" rx="5.5" transform="matrix(1 0 -0.511893 0.859049 470.194 47.3082)" stroke="#192937"/>
<rect x="0.244054" y="0.429525" width="55" height="55" rx="5.5" transform="matrix(1 0 -0.511893 0.859049 525.194 47.3082)" stroke="#192937"/>
<rect x="0.244054" y="0.429525" width="55" height="55" rx="5.5" transform="matrix(1 0 -0.511893 0.859049 580.194 47.3082)" stroke="#192937"/>
<rect x="0.244054" y="0.429525" width="55" height="55" rx="5.5" transform="matrix(1 0 -0.511893 0.859049 57.04 94.5559)" stroke="#192937"/>
<rect x="0.244054" y="0.429525" width="55" height="55" rx="5.5" transform="matrix(1 0 -0.511893 0.859049 112.04 94.5559)" stroke="#192937"/>
<rect x="0.244054" y="0.429525" width="55" height="55" rx="5.5" transform="matrix(1 0 -0.511893 0.859049 167.04 94.5559)" stroke="#192937"/>
<rect x="0.244054" y="0.429525" width="55" height="55" rx="5.5" transform="matrix(1 0 -0.511893 0.859049 222.04 94.5559)" stroke="#192937"/>
<rect x="0.244054" y="0.429525" width="55" height="55" rx="5.5" transform="matrix(1 0 -0.511893 0.859049 277.04 94.5559)" stroke="#192937"/>
<rect x="0.244054" y="0.429525" width="55" height="55" rx="5.5" transform="matrix(1 0 -0.511893 0.859049 332.04 94.5559)" stroke="#192937"/>
<rect x="0.244054" y="0.429525" width="55" height="55" rx="5.5" transform="matrix(1 0 -0.511893 0.859049 387.04 94.5559)" stroke="#192937"/>
<rect x="0.244054" y="0.429525" width="55" height="55" rx="5.5" transform="matrix(1 0 -0.511893 0.859049 442.04 94.5559)" stroke="#192937"/>
<rect x="0.244054" y="0.429525" width="55" height="55" rx="5.5" transform="matrix(1 0 -0.511893 0.859049 497.04 94.5559)" stroke="#192937"/>
<rect x="0.244054" y="0.429525" width="55" height="55" rx="5.5" transform="matrix(1 0 -0.511893 0.859049 552.04 94.5559)" stroke="#192937"/>
<rect x="0.244054" y="0.429525" width="55" height="55" rx="5.5" transform="matrix(1 0 -0.511893 0.859049 28.8859 141.804)" stroke="#192937"/>
<rect x="0.244054" y="0.429525" width="55" height="55" rx="5.5" transform="matrix(1 0 -0.511893 0.859049 83.8859 141.804)" stroke="#192937"/>
<rect x="0.244054" y="0.429525" width="55" height="55" rx="5.5" transform="matrix(1 0 -0.511893 0.859049 138.886 141.804)" stroke="#192937"/>
<rect x="0.244054" y="0.429525" width="55" height="55" rx="5.5" transform="matrix(1 0 -0.511893 0.859049 193.886 141.804)" stroke="#192937"/>
<rect x="0.244054" y="0.429525" width="55" height="55" rx="5.5" transform="matrix(1 0 -0.511893 0.859049 248.886 141.804)" stroke="#192937"/>
<rect x="0.244054" y="0.429525" width="55" height="55" rx="5.5" transform="matrix(1 0 -0.511893 0.859049 303.886 141.804)" stroke="#192937"/>
<rect x="0.244054" y="0.429525" width="55" height="55" rx="5.5" transform="matrix(1 0 -0.511893 0.859049 358.886 141.804)" stroke="#192937"/>
<rect x="0.244054" y="0.429525" width="55" height="55" rx="5.5" transform="matrix(1 0 -0.511893 0.859049 413.886 141.804)" stroke="#192937"/>
<rect x="0.244054" y="0.429525" width="55" height="55" rx="5.5" transform="matrix(1 0 -0.511893 0.859049 468.886 141.804)" stroke="#192937"/>
<rect x="0.244054" y="0.429525" width="55" height="55" rx="5.5" transform="matrix(1 0 -0.511893 0.859049 523.886 141.804)" stroke="#192937"/>
<rect x="0.244054" y="0.429525" width="55" height="55" rx="5.5" transform="matrix(1 0 -0.511893 0.859049 570.348 230.061)" stroke="#192937"/>
<rect x="0.244054" y="0.429525" width="55" height="55" rx="5.5" transform="matrix(1 0 -0.511893 0.859049 625.348 230.061)" stroke="#192937"/>
<rect x="0.244054" y="0.429525" width="55" height="55" rx="5.5" transform="matrix(1 0 -0.511893 0.859049 680.348 230.061)" stroke="#192937"/>
<rect x="0.244054" y="0.429525" width="55" height="55" rx="5.5" transform="matrix(1 0 -0.511893 0.859049 735.348 230.061)" stroke="#192937"/>
<rect x="0.244054" y="0.429525" width="55" height="55" rx="5.5" transform="matrix(1 0 -0.511893 0.859049 790.348 230.061)" stroke="#192937"/>
<rect x="0.244054" y="0.429525" width="55" height="55" rx="5.5" transform="matrix(1 0 -0.511893 0.859049 845.348 230.061)" stroke="#192937"/>
<rect x="0.244054" y="0.429525" width="55" height="55" rx="5.5" transform="matrix(1 0 -0.511893 0.859049 900.348 230.061)" stroke="#192937"/>
<rect x="0.244054" y="0.429525" width="55" height="55" rx="5.5" transform="matrix(1 0 -0.511893 0.859049 955.348 230.061)" stroke="#192937"/>
<rect x="0.244054" y="0.429525" width="55" height="55" rx="5.5" transform="matrix(1 0 -0.511893 0.859049 1010.35 230.061)" stroke="#192937"/>
<rect x="0.244054" y="0.429525" width="55" height="55" rx="5.5" transform="matrix(1 0 -0.511893 0.859049 1065.35 230.061)" stroke="#192937"/>
<rect x="0.244054" y="0.429525" width="55" height="55" rx="5.5" transform="matrix(1 0 -0.511893 0.859049 542.194 277.308)" stroke="#192937"/>
<rect x="0.244054" y="0.429525" width="55" height="55" rx="5.5" transform="matrix(1 0 -0.511893 0.859049 597.194 277.308)" stroke="#192937"/>
<rect x="0.244054" y="0.429525" width="55" height="55" rx="5.5" transform="matrix(1 0 -0.511893 0.859049 652.194 277.308)" stroke="#192937"/>
<rect x="0.244054" y="0.429525" width="55" height="55" rx="5.5" transform="matrix(1 0 -0.511893 0.859049 707.194 277.308)" stroke="#192937"/>
<rect x="0.244054" y="0.429525" width="55" height="55" rx="5.5" transform="matrix(1 0 -0.511893 0.859049 762.194 277.308)" stroke="#192937"/>
<rect x="0.244054" y="0.429525" width="55" height="55" rx="5.5" transform="matrix(1 0 -0.511893 0.859049 817.194 277.308)" stroke="#192937"/>
<rect x="0.244054" y="0.429525" width="55" height="55" rx="5.5" transform="matrix(1 0 -0.511893 0.859049 872.194 277.308)" stroke="#192937"/>
<rect x="0.244054" y="0.429525" width="55" height="55" rx="5.5" transform="matrix(1 0 -0.511893 0.859049 927.194 277.308)" stroke="#192937"/>
<rect x="0.244054" y="0.429525" width="55" height="55" rx="5.5" transform="matrix(1 0 -0.511893 0.859049 982.194 277.308)" stroke="#192937"/>
<rect x="0.244054" y="0.429525" width="55" height="55" rx="5.5" transform="matrix(1 0 -0.511893 0.859049 1037.19 277.308)" stroke="#192937"/>
<rect x="0.244054" y="0.429525" width="55" height="55" rx="5.5" transform="matrix(1 0 -0.511893 0.859049 514.04 324.556)" stroke="#192937"/>
<rect x="0.244054" y="0.429525" width="55" height="55" rx="5.5" transform="matrix(1 0 -0.511893 0.859049 569.04 324.556)" stroke="#192937"/>
<rect x="0.244054" y="0.429525" width="55" height="55" rx="5.5" transform="matrix(1 0 -0.511893 0.859049 624.04 324.556)" stroke="#192937"/>
<rect x="0.244054" y="0.429525" width="55" height="55" rx="5.5" transform="matrix(1 0 -0.511893 0.859049 679.04 324.556)" stroke="#192937"/>
<rect x="0.244054" y="0.429525" width="55" height="55" rx="5.5" transform="matrix(1 0 -0.511893 0.859049 734.04 324.556)" stroke="#192937"/>
<rect x="0.244054" y="0.429525" width="55" height="55" rx="5.5" transform="matrix(1 0 -0.511893 0.859049 789.04 324.556)" stroke="#192937"/>
<rect x="0.244054" y="0.429525" width="55" height="55" rx="5.5" transform="matrix(1 0 -0.511893 0.859049 844.04 324.556)" stroke="#192937"/>
<rect x="0.244054" y="0.429525" width="55" height="55" rx="5.5" transform="matrix(1 0 -0.511893 0.859049 899.04 324.556)" stroke="#192937"/>
<rect x="0.244054" y="0.429525" width="55" height="55" rx="5.5" transform="matrix(1 0 -0.511893 0.859049 954.04 324.556)" stroke="#192937"/>
<rect x="0.244054" y="0.429525" width="55" height="55" rx="5.5" transform="matrix(1 0 -0.511893 0.859049 1009.04 324.556)" stroke="#192937"/>
<rect x="0.244054" y="0.429525" width="55" height="55" rx="5.5" transform="matrix(1 0 -0.511893 0.859049 485.886 371.804)" stroke="#192937"/>
<rect x="0.244054" y="0.429525" width="55" height="55" rx="5.5" transform="matrix(1 0 -0.511893 0.859049 540.886 371.804)" stroke="#192937"/>
<rect x="0.244054" y="0.429525" width="55" height="55" rx="5.5" transform="matrix(1 0 -0.511893 0.859049 595.886 371.804)" stroke="#192937"/>
<rect x="0.244054" y="0.429525" width="55" height="55" rx="5.5" transform="matrix(1 0 -0.511893 0.859049 650.886 371.804)" stroke="#192937"/>
<rect x="0.244054" y="0.429525" width="55" height="55" rx="5.5" transform="matrix(1 0 -0.511893 0.859049 705.886 371.804)" stroke="#192937"/>
<rect x="0.244054" y="0.429525" width="55" height="55" rx="5.5" transform="matrix(1 0 -0.511893 0.859049 760.886 371.804)" stroke="#192937"/>
<rect x="0.244054" y="0.429525" width="55" height="55" rx="5.5" transform="matrix(1 0 -0.511893 0.859049 815.886 371.804)" stroke="#192937"/>
<rect x="0.244054" y="0.429525" width="55" height="55" rx="5.5" transform="matrix(1 0 -0.511893 0.859049 870.886 371.804)" stroke="#192937"/>
<rect x="0.244054" y="0.429525" width="55" height="55" rx="5.5" transform="matrix(1 0 -0.511893 0.859049 925.886 371.804)" stroke="#192937"/>
<rect x="0.244054" y="0.429525" width="55" height="55" rx="5.5" transform="matrix(1 0 -0.511893 0.859049 980.886 371.804)" stroke="#192937"/>
</svg>
