<svg width="22" height="22" viewBox="0 0 22 22" fill="none" xmlns="http://www.w3.org/2000/svg">
<g id="mail-02">
<path id="Icon" d="M19.7083 16.5L13.619 11M8.38093 11L2.29168 16.5M1.83331 6.41663L9.31782 11.6558C9.9239 12.08 10.2269 12.2922 10.5566 12.3743C10.8477 12.4469 11.1522 12.4469 11.4434 12.3743C11.773 12.2922 12.0761 12.08 12.6821 11.6558L20.1666 6.41663M6.23331 18.3333H15.7666C17.3068 18.3333 18.0769 18.3333 18.6651 18.0336C19.1826 17.7699 19.6033 17.3492 19.8669 16.8318C20.1666 16.2435 20.1666 15.4734 20.1666 13.9333V8.06663C20.1666 6.52648 20.1666 5.75641 19.8669 5.16815C19.6033 4.65071 19.1826 4.23001 18.6651 3.96636C18.0769 3.66663 17.3068 3.66663 15.7666 3.66663H6.23331C4.69317 3.66663 3.9231 3.66663 3.33484 3.96636C2.81739 4.23001 2.3967 4.65071 2.13305 5.16815C1.83331 5.75641 1.83331 6.52648 1.83331 8.06663V13.9333C1.83331 15.4734 1.83331 16.2435 2.13305 16.8318C2.3967 17.3492 2.81739 17.7699 3.33484 18.0336C3.9231 18.3333 4.69317 18.3333 6.23331 18.3333Z" stroke="#B2BEE2" stroke-width="1.4" stroke-linecap="round" stroke-linejoin="round"/>
</g>
</svg>
