<svg width="60" height="48" viewBox="0 0 60 48" fill="none" xmlns="http://www.w3.org/2000/svg">
<g filter="url(#filter0_i_303_386)">
<rect width="60" height="48" rx="4" fill="url(#paint0_linear_303_386)"/>
</g>
<rect x="0.5" y="0.5" width="59" height="47" rx="3.5" stroke="#52C5FA"/>
<g filter="url(#filter1_i_303_386)">
<path d="M41 31.3333V29C41 27.7113 39.9554 26.6667 38.6667 26.6667C37.378 26.6667 36.3334 27.7113 36.3334 29V31.3333M43.3334 21.3333H16.6667M43.3334 22.6667V18.9333C43.3334 17.4399 43.3334 16.6931 43.0427 16.1227C42.787 15.6209 42.3791 15.213 41.8773 14.9573C41.3069 14.6667 40.5602 14.6667 39.0667 14.6667H20.9334C19.4399 14.6667 18.6931 14.6667 18.1227 14.9573C17.6209 15.213 17.213 15.6209 16.9573 16.1227C16.6667 16.6931 16.6667 17.4399 16.6667 18.9333V29.0667C16.6667 30.5601 16.6667 31.3069 16.9573 31.8773C17.213 32.3791 17.6209 32.787 18.1227 33.0427C18.6931 33.3333 19.4399 33.3333 20.9334 33.3333H28.6667M36.1334 36.6667H41.2C41.9468 36.6667 42.3201 36.6667 42.6053 36.5213C42.8562 36.3935 43.0602 36.1895 43.188 35.9387C43.3334 35.6534 43.3334 35.2801 43.3334 34.5333V33.4667C43.3334 32.7199 43.3334 32.3466 43.188 32.0614C43.0602 31.8105 42.8562 31.6065 42.6053 31.4787C42.3201 31.3333 41.9468 31.3333 41.2 31.3333H36.1334C35.3866 31.3333 35.0132 31.3333 34.728 31.4787C34.4772 31.6065 34.2732 31.8105 34.1453 32.0614C34 32.3466 34 32.7199 34 33.4667V34.5333C34 35.2801 34 35.6534 34.1453 35.9387C34.2732 36.1895 34.4772 36.3935 34.728 36.5213C35.0132 36.6667 35.3866 36.6667 36.1334 36.6667Z" stroke="#52C5FA" stroke-width="1.8" stroke-linecap="round" stroke-linejoin="round"/>
</g>
<defs>
<filter id="filter0_i_303_386" x="0" y="0" width="60" height="49" filterUnits="userSpaceOnUse" color-interpolation-filters="sRGB">
<feFlood flood-opacity="0" result="BackgroundImageFix"/>
<feBlend mode="normal" in="SourceGraphic" in2="BackgroundImageFix" result="shape"/>
<feColorMatrix in="SourceAlpha" type="matrix" values="0 0 0 0 0 0 0 0 0 0 0 0 0 0 0 0 0 0 127 0" result="hardAlpha"/>
<feOffset dy="1"/>
<feGaussianBlur stdDeviation="3.5"/>
<feComposite in2="hardAlpha" operator="arithmetic" k2="-1" k3="1"/>
<feColorMatrix type="matrix" values="0 0 0 0 1 0 0 0 0 1 0 0 0 0 1 0 0 0 0.32 0"/>
<feBlend mode="overlay" in2="shape" result="effect1_innerShadow_303_386"/>
</filter>
<filter id="filter1_i_303_386" x="15.7667" y="13.7667" width="28.4667" height="25.8" filterUnits="userSpaceOnUse" color-interpolation-filters="sRGB">
<feFlood flood-opacity="0" result="BackgroundImageFix"/>
<feBlend mode="normal" in="SourceGraphic" in2="BackgroundImageFix" result="shape"/>
<feColorMatrix in="SourceAlpha" type="matrix" values="0 0 0 0 0 0 0 0 0 0 0 0 0 0 0 0 0 0 127 0" result="hardAlpha"/>
<feOffset dy="2"/>
<feGaussianBlur stdDeviation="1"/>
<feComposite in2="hardAlpha" operator="arithmetic" k2="-1" k3="1"/>
<feColorMatrix type="matrix" values="0 0 0 0 1 0 0 0 0 1 0 0 0 0 1 0 0 0 0.47 0"/>
<feBlend mode="overlay" in2="shape" result="effect1_innerShadow_303_386"/>
</filter>
<linearGradient id="paint0_linear_303_386" x1="30" y1="0" x2="30" y2="48" gradientUnits="userSpaceOnUse">
<stop stop-color="#242834"/>
<stop offset="1" stop-color="#1A1D26"/>
</linearGradient>
</defs>
</svg>
