<svg width="60" height="48" viewBox="0 0 60 48" fill="none" xmlns="http://www.w3.org/2000/svg">
<g filter="url(#filter0_i_303_419)">
<rect width="60" height="48" rx="4" fill="url(#paint0_linear_303_419)"/>
</g>
<rect x="0.5" y="0.5" width="59" height="47" rx="3.5" stroke="#52C5FA"/>
<g filter="url(#filter1_i_303_419)">
<path d="M30 27.5L26.5 24M30 27.5C31.6297 26.8802 33.193 26.0985 34.6667 25.1667M30 27.5V33.3333C30 33.3333 33.535 32.6917 34.6667 31C35.9267 29.11 34.6667 25.1667 34.6667 25.1667M26.5 24C27.1208 22.3893 27.9026 20.8454 28.8333 19.3917C30.1927 17.2181 32.0856 15.4286 34.3318 14.1931C36.5781 12.9577 39.1031 12.3174 41.6667 12.3333C41.6667 15.5067 40.7567 21.0833 34.6667 25.1667M26.5 24H20.6667C20.6667 24 21.3083 20.465 23 19.3333C24.89 18.0733 28.8333 19.3333 28.8333 19.3333M21.25 29.25C19.5 30.72 18.9167 35.0833 18.9167 35.0833C18.9167 35.0833 23.28 34.5 24.75 32.75C25.5783 31.77 25.5667 30.265 24.645 29.355C24.1915 28.9222 23.5942 28.6721 22.9676 28.6527C22.341 28.6333 21.7294 28.846 21.25 29.25Z" stroke="#52C5FA" stroke-width="1.8" stroke-linecap="round" stroke-linejoin="round"/>
</g>
<defs>
<filter id="filter0_i_303_419" x="0" y="0" width="60" height="49" filterUnits="userSpaceOnUse" color-interpolation-filters="sRGB">
<feFlood flood-opacity="0" result="BackgroundImageFix"/>
<feBlend mode="normal" in="SourceGraphic" in2="BackgroundImageFix" result="shape"/>
<feColorMatrix in="SourceAlpha" type="matrix" values="0 0 0 0 0 0 0 0 0 0 0 0 0 0 0 0 0 0 127 0" result="hardAlpha"/>
<feOffset dy="1"/>
<feGaussianBlur stdDeviation="3.5"/>
<feComposite in2="hardAlpha" operator="arithmetic" k2="-1" k3="1"/>
<feColorMatrix type="matrix" values="0 0 0 0 1 0 0 0 0 1 0 0 0 0 1 0 0 0 0.32 0"/>
<feBlend mode="overlay" in2="shape" result="effect1_innerShadow_303_419"/>
</filter>
<filter id="filter1_i_303_419" x="18.0167" y="11.433" width="24.55" height="26.5503" filterUnits="userSpaceOnUse" color-interpolation-filters="sRGB">
<feFlood flood-opacity="0" result="BackgroundImageFix"/>
<feBlend mode="normal" in="SourceGraphic" in2="BackgroundImageFix" result="shape"/>
<feColorMatrix in="SourceAlpha" type="matrix" values="0 0 0 0 0 0 0 0 0 0 0 0 0 0 0 0 0 0 127 0" result="hardAlpha"/>
<feOffset dy="2"/>
<feGaussianBlur stdDeviation="1"/>
<feComposite in2="hardAlpha" operator="arithmetic" k2="-1" k3="1"/>
<feColorMatrix type="matrix" values="0 0 0 0 1 0 0 0 0 1 0 0 0 0 1 0 0 0 0.47 0"/>
<feBlend mode="overlay" in2="shape" result="effect1_innerShadow_303_419"/>
</filter>
<linearGradient id="paint0_linear_303_419" x1="30" y1="0" x2="30" y2="48" gradientUnits="userSpaceOnUse">
<stop stop-color="#242834"/>
<stop offset="1" stop-color="#1A1D26"/>
</linearGradient>
</defs>
</svg>
